<svg xmlns="http://www.w3.org/2000/svg" viewBox="0 0 1000 22" width="1000" height="22" role="img" aria-label="">
  <desc>Hand-drawn divider: two overlapping wobbly strokes, same wobble technique as the header.</desc>
  <g fill="none" stroke-linecap="round">
    <path d="M 4.0 7.5 C 8.2 7.5 21.0 7.3 29.4 7.3 C 37.9 7.2 46.4 7.2 54.9 7.3 C 63.4 7.4 71.8 7.7 80.3 7.8 C 88.8 7.9 97.3 7.8 105.7 8.0 C 114.2 8.2 122.7 8.6 131.2 8.9 C 139.7 9.2 148.1 9.5 156.6 9.7 C 165.1 9.9 173.6 9.8 182.1 9.9 C 190.5 10.0 199.0 10.2 207.5 10.1 C 216.0 10.1 224.4 9.7 232.9 9.6 C 241.4 9.6 249.9 9.7 258.4 9.6 C 266.8 9.6 275.3 9.4 283.8 9.4 C 292.3 9.4 300.8 9.5 309.2 9.6 C 317.7 9.6 326.2 9.8 334.7 9.9 C 343.1 10.0 351.6 10.1 360.1 10.3 C 368.6 10.6 377.1 11.1 385.5 11.5 C 394.0 11.9 402.5 12.3 411.0 12.8 C 419.5 13.4 427.9 14.1 436.4 14.6 C 444.9 15.1 453.4 15.5 461.8 15.8 C 470.3 16.1 478.8 16.3 487.3 16.6 C 495.8 16.9 504.2 17.4 512.7 17.5 C 521.2 17.7 529.7 17.4 538.2 17.4 C 546.6 17.4 555.1 17.5 563.6 17.4 C 572.1 17.2 580.5 16.8 589.0 16.5 C 597.5 16.2 606.0 15.8 614.5 15.6 C 622.9 15.3 631.4 15.3 639.9 15.1 C 648.4 14.8 656.9 14.2 665.3 13.9 C 673.8 13.6 682.3 13.4 690.8 13.3 C 699.2 13.2 707.7 13.3 716.2 13.3 C 724.7 13.3 733.2 13.2 741.6 13.2 C 750.1 13.1 758.6 12.9 767.1 12.9 C 775.6 13.0 784.0 13.3 792.5 13.3 C 801.0 13.4 809.5 13.1 817.9 13.1 C 826.4 13.0 834.9 13.0 843.4 12.8 C 851.9 12.6 860.3 12.2 868.8 12.0 C 877.3 11.7 885.8 11.7 894.3 11.4 C 902.7 11.1 911.2 10.5 919.7 10.1 C 928.2 9.7 936.6 9.4 945.1 9.0 C 953.6 8.6 962.1 8.2 970.6 7.8 C 979.0 7.4 991.8 6.8 996.0 6.6" stroke="#6b6d73" stroke-width="1.4" opacity="0.55"/>
    <path d="M 4.0 16.6 C 8.7 16.6 22.9 16.6 32.3 16.4 C 41.8 16.2 51.2 15.8 60.7 15.5 C 70.1 15.1 79.6 14.8 89.0 14.4 C 98.5 14.0 107.9 13.6 117.4 13.1 C 126.8 12.7 136.3 12.2 145.7 11.9 C 155.2 11.5 164.6 11.2 174.1 11.0 C 183.5 10.7 193.0 10.3 202.4 10.2 C 211.8 10.0 221.3 9.9 230.7 9.8 C 240.2 9.8 249.6 9.7 259.1 9.7 C 268.5 9.8 278.0 10.0 287.4 10.0 C 296.9 10.1 306.3 10.2 315.8 10.3 C 325.2 10.4 334.7 10.5 344.1 10.7 C 353.6 10.8 363.0 10.9 372.5 11.0 C 381.9 11.2 391.4 11.4 400.8 11.5 C 410.2 11.5 419.7 11.3 429.1 11.2 C 438.6 11.2 448.0 11.3 457.5 11.2 C 466.9 11.1 476.4 11.0 485.8 10.8 C 495.3 10.6 504.7 10.3 514.2 10.2 C 523.6 10.1 533.1 10.2 542.5 10.1 C 552.0 10.1 561.4 9.7 570.9 9.8 C 580.3 9.8 589.8 10.1 599.2 10.3 C 608.6 10.5 618.1 10.7 627.5 10.9 C 637.0 11.1 646.4 11.2 655.9 11.5 C 665.3 11.8 674.8 12.4 684.2 12.8 C 693.7 13.3 703.1 13.7 712.6 14.1 C 722.0 14.4 731.5 14.7 740.9 15.0 C 750.4 15.4 759.8 15.9 769.3 16.2 C 778.7 16.5 788.2 16.5 797.6 16.6 C 807.0 16.8 816.5 17.2 825.9 17.2 C 835.4 17.3 844.8 17.1 854.3 17.1 C 863.7 17.0 873.2 17.0 882.6 16.8 C 892.1 16.6 901.5 16.1 911.0 15.9 C 920.4 15.6 929.9 15.5 939.3 15.3 C 948.8 15.1 958.2 15.0 967.7 14.9 C 977.1 14.7 991.3 14.5 996.0 14.5" stroke="#3d3f45" stroke-width="1.2" opacity="0.4"/>
  </g>
</svg>
