<svg xmlns="http://www.w3.org/2000/svg" viewBox="0 0 880 340" width="880" height="340" font-family="Inter, Segoe UI, Arial, sans-serif" role="img" aria-label="GitHub stats">
<rect x="8" y="8" width="864" height="324" rx="14" fill="#131418" stroke="#ffffff" stroke-opacity="0.10" stroke-width="1.5"/>
<text x="28" y="48" font-size="20" font-weight="700" fill="#f3f3f1">статистика · stats</text>
<text x="28" y="80" font-size="13" fill="#a6a7ab">контрибуции за год · contributions</text>
<rect x="28" y="96" width="8" height="8" rx="2" fill="#1b1d24"/>
<rect x="28" y="106" width="8" height="8" rx="2" fill="#1b1d24"/>
<rect x="28" y="116" width="8" height="8" rx="2" fill="#1b1d24"/>
<rect x="28" y="126" width="8" height="8" rx="2" fill="#1b1d24"/>
<rect x="28" y="136" width="8" height="8" rx="2" fill="#1b1d24"/>
<rect x="28" y="146" width="8" height="8" rx="2" fill="#1b1d24"/>
<rect x="28" y="156" width="8" height="8" rx="2" fill="#1b1d24"/>
<rect x="38" y="96" width="8" height="8" rx="2" fill="#1b1d24"/>
<rect x="38" y="106" width="8" height="8" rx="2" fill="#1b1d24"/>
<rect x="38" y="116" width="8" height="8" rx="2" fill="#1b1d24"/>
<rect x="38" y="126" width="8" height="8" rx="2" fill="#1b1d24"/>
<rect x="38" y="136" width="8" height="8" rx="2" fill="#1b1d24"/>
<rect x="38" y="146" width="8" height="8" rx="2" fill="#1b1d24"/>
<rect x="38" y="156" width="8" height="8" rx="2" fill="#1b1d24"/>
<rect x="48" y="96" width="8" height="8" rx="2" fill="#1b1d24"/>
<rect x="48" y="106" width="8" height="8" rx="2" fill="#1b1d24"/>
<rect x="48" y="116" width="8" height="8" rx="2" fill="#1b1d24"/>
<rect x="48" y="126" width="8" height="8" rx="2" fill="#1b1d24"/>
<rect x="48" y="136" width="8" height="8" rx="2" fill="#1b1d24"/>
<rect x="48" y="146" width="8" height="8" rx="2" fill="#1b1d24"/>
<rect x="48" y="156" width="8" height="8" rx="2" fill="#1b1d24"/>
<rect x="58" y="96" width="8" height="8" rx="2" fill="#1b1d24"/>
<rect x="58" y="106" width="8" height="8" rx="2" fill="#1b1d24"/>
<rect x="58" y="116" width="8" height="8" rx="2" fill="#1b1d24"/>
<rect x="58" y="126" width="8" height="8" rx="2" fill="#1b1d24"/>
<rect x="58" y="136" width="8" height="8" rx="2" fill="#1b1d24"/>
<rect x="58" y="146" width="8" height="8" rx="2" fill="#1b1d24"/>
<rect x="58" y="156" width="8" height="8" rx="2" fill="#1b1d24"/>
<rect x="68" y="96" width="8" height="8" rx="2" fill="#1b1d24"/>
<rect x="68" y="106" width="8" height="8" rx="2" fill="#1b1d24"/>
<rect x="68" y="116" width="8" height="8" rx="2" fill="#1b1d24"/>
<rect x="68" y="126" width="8" height="8" rx="2" fill="#1b1d24"/>
<rect x="68" y="136" width="8" height="8" rx="2" fill="#1b1d24"/>
<rect x="68" y="146" width="8" height="8" rx="2" fill="#1b1d24"/>
<rect x="68" y="156" width="8" height="8" rx="2" fill="#1b1d24"/>
<rect x="78" y="96" width="8" height="8" rx="2" fill="#1b1d24"/>
<rect x="78" y="106" width="8" height="8" rx="2" fill="#1b1d24"/>
<rect x="78" y="116" width="8" height="8" rx="2" fill="#1b1d24"/>
<rect x="78" y="126" width="8" height="8" rx="2" fill="#1b1d24"/>
<rect x="78" y="136" width="8" height="8" rx="2" fill="#1b1d24"/>
<rect x="78" y="146" width="8" height="8" rx="2" fill="#1b1d24"/>
<rect x="78" y="156" width="8" height="8" rx="2" fill="#1b1d24"/>
<rect x="88" y="96" width="8" height="8" rx="2" fill="#1b1d24"/>
<rect x="88" y="106" width="8" height="8" rx="2" fill="#1b1d24"/>
<rect x="88" y="116" width="8" height="8" rx="2" fill="#1b1d24"/>
<rect x="88" y="126" width="8" height="8" rx="2" fill="#1b1d24"/>
<rect x="88" y="136" width="8" height="8" rx="2" fill="#1b1d24"/>
<rect x="88" y="146" width="8" height="8" rx="2" fill="#1b1d24"/>
<rect x="88" y="156" width="8" height="8" rx="2" fill="#1b1d24"/>
<rect x="98" y="96" width="8" height="8" rx="2" fill="#1b1d24"/>
<rect x="98" y="106" width="8" height="8" rx="2" fill="#1b1d24"/>
<rect x="98" y="116" width="8" height="8" rx="2" fill="#1b1d24"/>
<rect x="98" y="126" width="8" height="8" rx="2" fill="#1b1d24"/>
<rect x="98" y="136" width="8" height="8" rx="2" fill="#1b1d24"/>
<rect x="98" y="146" width="8" height="8" rx="2" fill="#1b1d24"/>
<rect x="98" y="156" width="8" height="8" rx="2" fill="#1b1d24"/>
<rect x="108" y="96" width="8" height="8" rx="2" fill="#1b1d24"/>
<rect x="108" y="106" width="8" height="8" rx="2" fill="#1b1d24"/>
<rect x="108" y="116" width="8" height="8" rx="2" fill="#1b1d24"/>
<rect x="108" y="126" width="8" height="8" rx="2" fill="#1b1d24"/>
<rect x="108" y="136" width="8" height="8" rx="2" fill="#1b1d24"/>
<rect x="108" y="146" width="8" height="8" rx="2" fill="#1b1d24"/>
<rect x="108" y="156" width="8" height="8" rx="2" fill="#1b1d24"/>
<rect x="118" y="96" width="8" height="8" rx="2" fill="#1b1d24"/>
<rect x="118" y="106" width="8" height="8" rx="2" fill="#1b1d24"/>
<rect x="118" y="116" width="8" height="8" rx="2" fill="#1b1d24"/>
<rect x="118" y="126" width="8" height="8" rx="2" fill="#1b1d24"/>
<rect x="118" y="136" width="8" height="8" rx="2" fill="#1b1d24"/>
<rect x="118" y="146" width="8" height="8" rx="2" fill="#1b1d24"/>
<rect x="118" y="156" width="8" height="8" rx="2" fill="#1b1d24"/>
<rect x="128" y="96" width="8" height="8" rx="2" fill="#1b1d24"/>
<rect x="128" y="106" width="8" height="8" rx="2" fill="#1b1d24"/>
<rect x="128" y="116" width="8" height="8" rx="2" fill="#1b1d24"/>
<rect x="128" y="126" width="8" height="8" rx="2" fill="#1b1d24"/>
<rect x="128" y="136" width="8" height="8" rx="2" fill="#1b1d24"/>
<rect x="128" y="146" width="8" height="8" rx="2" fill="#1b1d24"/>
<rect x="128" y="156" width="8" height="8" rx="2" fill="#1b1d24"/>
<rect x="138" y="96" width="8" height="8" rx="2" fill="#1b1d24"/>
<rect x="138" y="106" width="8" height="8" rx="2" fill="#1b1d24"/>
<rect x="138" y="116" width="8" height="8" rx="2" fill="#1b1d24"/>
<rect x="138" y="126" width="8" height="8" rx="2" fill="#1b1d24"/>
<rect x="138" y="136" width="8" height="8" rx="2" fill="#1b1d24"/>
<rect x="138" y="146" width="8" height="8" rx="2" fill="#1b1d24"/>
<rect x="138" y="156" width="8" height="8" rx="2" fill="#1b1d24"/>
<rect x="148" y="96" width="8" height="8" rx="2" fill="#1b1d24"/>
<rect x="148" y="106" width="8" height="8" rx="2" fill="#1b1d24"/>
<rect x="148" y="116" width="8" height="8" rx="2" fill="#1b1d24"/>
<rect x="148" y="126" width="8" height="8" rx="2" fill="#1b1d24"/>
<rect x="148" y="136" width="8" height="8" rx="2" fill="#1b1d24"/>
<rect x="148" y="146" width="8" height="8" rx="2" fill="#1b1d24"/>
<rect x="148" y="156" width="8" height="8" rx="2" fill="#1b1d24"/>
<rect x="158" y="96" width="8" height="8" rx="2" fill="#1b1d24"/>
<rect x="158" y="106" width="8" height="8" rx="2" fill="#1b1d24"/>
<rect x="158" y="116" width="8" height="8" rx="2" fill="#1b1d24"/>
<rect x="158" y="126" width="8" height="8" rx="2" fill="#1b1d24"/>
<rect x="158" y="136" width="8" height="8" rx="2" fill="#1b1d24"/>
<rect x="158" y="146" width="8" height="8" rx="2" fill="#1b1d24"/>
<rect x="158" y="156" width="8" height="8" rx="2" fill="#1b1d24"/>
<rect x="168" y="96" width="8" height="8" rx="2" fill="#1b1d24"/>
<rect x="168" y="106" width="8" height="8" rx="2" fill="#1b1d24"/>
<rect x="168" y="116" width="8" height="8" rx="2" fill="#1b1d24"/>
<rect x="168" y="126" width="8" height="8" rx="2" fill="#1b1d24"/>
<rect x="168" y="136" width="8" height="8" rx="2" fill="#1b1d24"/>
<rect x="168" y="146" width="8" height="8" rx="2" fill="#1b1d24"/>
<rect x="168" y="156" width="8" height="8" rx="2" fill="#1b1d24"/>
<rect x="178" y="96" width="8" height="8" rx="2" fill="#1b1d24"/>
<rect x="178" y="106" width="8" height="8" rx="2" fill="#1b1d24"/>
<rect x="178" y="116" width="8" height="8" rx="2" fill="#1b1d24"/>
<rect x="178" y="126" width="8" height="8" rx="2" fill="#1b1d24"/>
<rect x="178" y="136" width="8" height="8" rx="2" fill="#1b1d24"/>
<rect x="178" y="146" width="8" height="8" rx="2" fill="#1b1d24"/>
<rect x="178" y="156" width="8" height="8" rx="2" fill="#1b1d24"/>
<rect x="188" y="96" width="8" height="8" rx="2" fill="#1b1d24"/>
<rect x="188" y="106" width="8" height="8" rx="2" fill="#1b1d24"/>
<rect x="188" y="116" width="8" height="8" rx="2" fill="#1b1d24"/>
<rect x="188" y="126" width="8" height="8" rx="2" fill="#1b1d24"/>
<rect x="188" y="136" width="8" height="8" rx="2" fill="#3a3f49"/>
<rect x="188" y="146" width="8" height="8" rx="2" fill="#1b1d24"/>
<rect x="188" y="156" width="8" height="8" rx="2" fill="#1b1d24"/>
<rect x="198" y="96" width="8" height="8" rx="2" fill="#1b1d24"/>
<rect x="198" y="106" width="8" height="8" rx="2" fill="#1b1d24"/>
<rect x="198" y="116" width="8" height="8" rx="2" fill="#1b1d24"/>
<rect x="198" y="126" width="8" height="8" rx="2" fill="#1b1d24"/>
<rect x="198" y="136" width="8" height="8" rx="2" fill="#1b1d24"/>
<rect x="198" y="146" width="8" height="8" rx="2" fill="#1b1d24"/>
<rect x="198" y="156" width="8" height="8" rx="2" fill="#1b1d24"/>
<rect x="208" y="96" width="8" height="8" rx="2" fill="#1b1d24"/>
<rect x="208" y="106" width="8" height="8" rx="2" fill="#1b1d24"/>
<rect x="208" y="116" width="8" height="8" rx="2" fill="#1b1d24"/>
<rect x="208" y="126" width="8" height="8" rx="2" fill="#1b1d24"/>
<rect x="208" y="136" width="8" height="8" rx="2" fill="#1b1d24"/>
<rect x="208" y="146" width="8" height="8" rx="2" fill="#1b1d24"/>
<rect x="208" y="156" width="8" height="8" rx="2" fill="#1b1d24"/>
<rect x="218" y="96" width="8" height="8" rx="2" fill="#1b1d24"/>
<rect x="218" y="106" width="8" height="8" rx="2" fill="#1b1d24"/>
<rect x="218" y="116" width="8" height="8" rx="2" fill="#1b1d24"/>
<rect x="218" y="126" width="8" height="8" rx="2" fill="#1b1d24"/>
<rect x="218" y="136" width="8" height="8" rx="2" fill="#1b1d24"/>
<rect x="218" y="146" width="8" height="8" rx="2" fill="#1b1d24"/>
<rect x="218" y="156" width="8" height="8" rx="2" fill="#1b1d24"/>
<rect x="228" y="96" width="8" height="8" rx="2" fill="#1b1d24"/>
<rect x="228" y="106" width="8" height="8" rx="2" fill="#1b1d24"/>
<rect x="228" y="116" width="8" height="8" rx="2" fill="#1b1d24"/>
<rect x="228" y="126" width="8" height="8" rx="2" fill="#1b1d24"/>
<rect x="228" y="136" width="8" height="8" rx="2" fill="#1b1d24"/>
<rect x="228" y="146" width="8" height="8" rx="2" fill="#1b1d24"/>
<rect x="228" y="156" width="8" height="8" rx="2" fill="#1b1d24"/>
<rect x="238" y="96" width="8" height="8" rx="2" fill="#1b1d24"/>
<rect x="238" y="106" width="8" height="8" rx="2" fill="#1b1d24"/>
<rect x="238" y="116" width="8" height="8" rx="2" fill="#1b1d24"/>
<rect x="238" y="126" width="8" height="8" rx="2" fill="#1b1d24"/>
<rect x="238" y="136" width="8" height="8" rx="2" fill="#1b1d24"/>
<rect x="238" y="146" width="8" height="8" rx="2" fill="#1b1d24"/>
<rect x="238" y="156" width="8" height="8" rx="2" fill="#1b1d24"/>
<rect x="248" y="96" width="8" height="8" rx="2" fill="#1b1d24"/>
<rect x="248" y="106" width="8" height="8" rx="2" fill="#1b1d24"/>
<rect x="248" y="116" width="8" height="8" rx="2" fill="#1b1d24"/>
<rect x="248" y="126" width="8" height="8" rx="2" fill="#1b1d24"/>
<rect x="248" y="136" width="8" height="8" rx="2" fill="#1b1d24"/>
<rect x="248" y="146" width="8" height="8" rx="2" fill="#1b1d24"/>
<rect x="248" y="156" width="8" height="8" rx="2" fill="#1b1d24"/>
<rect x="258" y="96" width="8" height="8" rx="2" fill="#1b1d24"/>
<rect x="258" y="106" width="8" height="8" rx="2" fill="#1b1d24"/>
<rect x="258" y="116" width="8" height="8" rx="2" fill="#1b1d24"/>
<rect x="258" y="126" width="8" height="8" rx="2" fill="#1b1d24"/>
<rect x="258" y="136" width="8" height="8" rx="2" fill="#1b1d24"/>
<rect x="258" y="146" width="8" height="8" rx="2" fill="#1b1d24"/>
<rect x="258" y="156" width="8" height="8" rx="2" fill="#1b1d24"/>
<rect x="268" y="96" width="8" height="8" rx="2" fill="#1b1d24"/>
<rect x="268" y="106" width="8" height="8" rx="2" fill="#1b1d24"/>
<rect x="268" y="116" width="8" height="8" rx="2" fill="#1b1d24"/>
<rect x="268" y="126" width="8" height="8" rx="2" fill="#1b1d24"/>
<rect x="268" y="136" width="8" height="8" rx="2" fill="#1b1d24"/>
<rect x="268" y="146" width="8" height="8" rx="2" fill="#1b1d24"/>
<rect x="268" y="156" width="8" height="8" rx="2" fill="#1b1d24"/>
<rect x="278" y="96" width="8" height="8" rx="2" fill="#1b1d24"/>
<rect x="278" y="106" width="8" height="8" rx="2" fill="#1b1d24"/>
<rect x="278" y="116" width="8" height="8" rx="2" fill="#1b1d24"/>
<rect x="278" y="126" width="8" height="8" rx="2" fill="#1b1d24"/>
<rect x="278" y="136" width="8" height="8" rx="2" fill="#1b1d24"/>
<rect x="278" y="146" width="8" height="8" rx="2" fill="#1b1d24"/>
<rect x="278" y="156" width="8" height="8" rx="2" fill="#1b1d24"/>
<rect x="288" y="96" width="8" height="8" rx="2" fill="#1b1d24"/>
<rect x="288" y="106" width="8" height="8" rx="2" fill="#1b1d24"/>
<rect x="288" y="116" width="8" height="8" rx="2" fill="#1b1d24"/>
<rect x="288" y="126" width="8" height="8" rx="2" fill="#1b1d24"/>
<rect x="288" y="136" width="8" height="8" rx="2" fill="#1b1d24"/>
<rect x="288" y="146" width="8" height="8" rx="2" fill="#1b1d24"/>
<rect x="288" y="156" width="8" height="8" rx="2" fill="#1b1d24"/>
<rect x="298" y="96" width="8" height="8" rx="2" fill="#1b1d24"/>
<rect x="298" y="106" width="8" height="8" rx="2" fill="#1b1d24"/>
<rect x="298" y="116" width="8" height="8" rx="2" fill="#1b1d24"/>
<rect x="298" y="126" width="8" height="8" rx="2" fill="#1b1d24"/>
<rect x="298" y="136" width="8" height="8" rx="2" fill="#1b1d24"/>
<rect x="298" y="146" width="8" height="8" rx="2" fill="#1b1d24"/>
<rect x="298" y="156" width="8" height="8" rx="2" fill="#1b1d24"/>
<rect x="308" y="96" width="8" height="8" rx="2" fill="#1b1d24"/>
<rect x="308" y="106" width="8" height="8" rx="2" fill="#1b1d24"/>
<rect x="308" y="116" width="8" height="8" rx="2" fill="#1b1d24"/>
<rect x="308" y="126" width="8" height="8" rx="2" fill="#1b1d24"/>
<rect x="308" y="136" width="8" height="8" rx="2" fill="#1b1d24"/>
<rect x="308" y="146" width="8" height="8" rx="2" fill="#1b1d24"/>
<rect x="308" y="156" width="8" height="8" rx="2" fill="#1b1d24"/>
<rect x="318" y="96" width="8" height="8" rx="2" fill="#1b1d24"/>
<rect x="318" y="106" width="8" height="8" rx="2" fill="#1b1d24"/>
<rect x="318" y="116" width="8" height="8" rx="2" fill="#1b1d24"/>
<rect x="318" y="126" width="8" height="8" rx="2" fill="#1b1d24"/>
<rect x="318" y="136" width="8" height="8" rx="2" fill="#1b1d24"/>
<rect x="318" y="146" width="8" height="8" rx="2" fill="#1b1d24"/>
<rect x="318" y="156" width="8" height="8" rx="2" fill="#1b1d24"/>
<rect x="328" y="96" width="8" height="8" rx="2" fill="#1b1d24"/>
<rect x="328" y="106" width="8" height="8" rx="2" fill="#1b1d24"/>
<rect x="328" y="116" width="8" height="8" rx="2" fill="#1b1d24"/>
<rect x="328" y="126" width="8" height="8" rx="2" fill="#1b1d24"/>
<rect x="328" y="136" width="8" height="8" rx="2" fill="#1b1d24"/>
<rect x="328" y="146" width="8" height="8" rx="2" fill="#1b1d24"/>
<rect x="328" y="156" width="8" height="8" rx="2" fill="#1b1d24"/>
<rect x="338" y="96" width="8" height="8" rx="2" fill="#1b1d24"/>
<rect x="338" y="106" width="8" height="8" rx="2" fill="#1b1d24"/>
<rect x="338" y="116" width="8" height="8" rx="2" fill="#1b1d24"/>
<rect x="338" y="126" width="8" height="8" rx="2" fill="#1b1d24"/>
<rect x="338" y="136" width="8" height="8" rx="2" fill="#3a3f49"/>
<rect x="338" y="146" width="8" height="8" rx="2" fill="#1b1d24"/>
<rect x="338" y="156" width="8" height="8" rx="2" fill="#3a3f49"/>
<rect x="348" y="96" width="8" height="8" rx="2" fill="#1b1d24"/>
<rect x="348" y="106" width="8" height="8" rx="2" fill="#1b1d24"/>
<rect x="348" y="116" width="8" height="8" rx="2" fill="#1b1d24"/>
<rect x="348" y="126" width="8" height="8" rx="2" fill="#3a3f49"/>
<rect x="348" y="136" width="8" height="8" rx="2" fill="#1b1d24"/>
<rect x="348" y="146" width="8" height="8" rx="2" fill="#1b1d24"/>
<rect x="348" y="156" width="8" height="8" rx="2" fill="#1b1d24"/>
<rect x="358" y="96" width="8" height="8" rx="2" fill="#1b1d24"/>
<rect x="358" y="106" width="8" height="8" rx="2" fill="#1b1d24"/>
<rect x="358" y="116" width="8" height="8" rx="2" fill="#1b1d24"/>
<rect x="358" y="126" width="8" height="8" rx="2" fill="#3a3f49"/>
<rect x="358" y="136" width="8" height="8" rx="2" fill="#1b1d24"/>
<rect x="358" y="146" width="8" height="8" rx="2" fill="#1b1d24"/>
<rect x="358" y="156" width="8" height="8" rx="2" fill="#1b1d24"/>
<rect x="368" y="96" width="8" height="8" rx="2" fill="#1b1d24"/>
<rect x="368" y="106" width="8" height="8" rx="2" fill="#1b1d24"/>
<rect x="368" y="116" width="8" height="8" rx="2" fill="#1b1d24"/>
<rect x="368" y="126" width="8" height="8" rx="2" fill="#1b1d24"/>
<rect x="368" y="136" width="8" height="8" rx="2" fill="#1b1d24"/>
<rect x="368" y="146" width="8" height="8" rx="2" fill="#1b1d24"/>
<rect x="368" y="156" width="8" height="8" rx="2" fill="#1b1d24"/>
<rect x="378" y="96" width="8" height="8" rx="2" fill="#1b1d24"/>
<rect x="378" y="106" width="8" height="8" rx="2" fill="#1b1d24"/>
<rect x="378" y="116" width="8" height="8" rx="2" fill="#1b1d24"/>
<rect x="378" y="126" width="8" height="8" rx="2" fill="#1b1d24"/>
<rect x="378" y="136" width="8" height="8" rx="2" fill="#1b1d24"/>
<rect x="378" y="146" width="8" height="8" rx="2" fill="#1b1d24"/>
<rect x="378" y="156" width="8" height="8" rx="2" fill="#1b1d24"/>
<rect x="388" y="96" width="8" height="8" rx="2" fill="#3a3f49"/>
<rect x="388" y="106" width="8" height="8" rx="2" fill="#1b1d24"/>
<rect x="388" y="116" width="8" height="8" rx="2" fill="#1b1d24"/>
<rect x="388" y="126" width="8" height="8" rx="2" fill="#1b1d24"/>
<rect x="388" y="136" width="8" height="8" rx="2" fill="#1b1d24"/>
<rect x="388" y="146" width="8" height="8" rx="2" fill="#1b1d24"/>
<rect x="388" y="156" width="8" height="8" rx="2" fill="#1b1d24"/>
<rect x="398" y="96" width="8" height="8" rx="2" fill="#1b1d24"/>
<rect x="398" y="106" width="8" height="8" rx="2" fill="#1b1d24"/>
<rect x="398" y="116" width="8" height="8" rx="2" fill="#1b1d24"/>
<rect x="398" y="126" width="8" height="8" rx="2" fill="#1b1d24"/>
<rect x="398" y="136" width="8" height="8" rx="2" fill="#1b1d24"/>
<rect x="398" y="146" width="8" height="8" rx="2" fill="#5c626e"/>
<rect x="398" y="156" width="8" height="8" rx="2" fill="#1b1d24"/>
<rect x="408" y="96" width="8" height="8" rx="2" fill="#1b1d24"/>
<rect x="408" y="106" width="8" height="8" rx="2" fill="#1b1d24"/>
<rect x="408" y="116" width="8" height="8" rx="2" fill="#1b1d24"/>
<rect x="408" y="126" width="8" height="8" rx="2" fill="#1b1d24"/>
<rect x="408" y="136" width="8" height="8" rx="2" fill="#1b1d24"/>
<rect x="408" y="146" width="8" height="8" rx="2" fill="#1b1d24"/>
<rect x="408" y="156" width="8" height="8" rx="2" fill="#1b1d24"/>
<rect x="418" y="96" width="8" height="8" rx="2" fill="#1b1d24"/>
<rect x="418" y="106" width="8" height="8" rx="2" fill="#1b1d24"/>
<rect x="418" y="116" width="8" height="8" rx="2" fill="#1b1d24"/>
<rect x="418" y="126" width="8" height="8" rx="2" fill="#1b1d24"/>
<rect x="418" y="136" width="8" height="8" rx="2" fill="#1b1d24"/>
<rect x="418" y="146" width="8" height="8" rx="2" fill="#1b1d24"/>
<rect x="418" y="156" width="8" height="8" rx="2" fill="#1b1d24"/>
<rect x="428" y="96" width="8" height="8" rx="2" fill="#1b1d24"/>
<rect x="428" y="106" width="8" height="8" rx="2" fill="#1b1d24"/>
<rect x="428" y="116" width="8" height="8" rx="2" fill="#1b1d24"/>
<rect x="428" y="126" width="8" height="8" rx="2" fill="#1b1d24"/>
<rect x="428" y="136" width="8" height="8" rx="2" fill="#1b1d24"/>
<rect x="428" y="146" width="8" height="8" rx="2" fill="#1b1d24"/>
<rect x="428" y="156" width="8" height="8" rx="2" fill="#1b1d24"/>
<rect x="438" y="96" width="8" height="8" rx="2" fill="#3a3f49"/>
<rect x="438" y="106" width="8" height="8" rx="2" fill="#1b1d24"/>
<rect x="438" y="116" width="8" height="8" rx="2" fill="#1b1d24"/>
<rect x="438" y="126" width="8" height="8" rx="2" fill="#1b1d24"/>
<rect x="438" y="136" width="8" height="8" rx="2" fill="#1b1d24"/>
<rect x="438" y="146" width="8" height="8" rx="2" fill="#1b1d24"/>
<rect x="438" y="156" width="8" height="8" rx="2" fill="#1b1d24"/>
<rect x="448" y="96" width="8" height="8" rx="2" fill="#1b1d24"/>
<rect x="448" y="106" width="8" height="8" rx="2" fill="#1b1d24"/>
<rect x="448" y="116" width="8" height="8" rx="2" fill="#1b1d24"/>
<rect x="448" y="126" width="8" height="8" rx="2" fill="#1b1d24"/>
<rect x="448" y="136" width="8" height="8" rx="2" fill="#1b1d24"/>
<rect x="448" y="146" width="8" height="8" rx="2" fill="#1b1d24"/>
<rect x="448" y="156" width="8" height="8" rx="2" fill="#1b1d24"/>
<rect x="458" y="96" width="8" height="8" rx="2" fill="#1b1d24"/>
<rect x="458" y="106" width="8" height="8" rx="2" fill="#1b1d24"/>
<rect x="458" y="116" width="8" height="8" rx="2" fill="#1b1d24"/>
<rect x="458" y="126" width="8" height="8" rx="2" fill="#3a3f49"/>
<rect x="458" y="136" width="8" height="8" rx="2" fill="#9aa0ab"/>
<rect x="458" y="146" width="8" height="8" rx="2" fill="#9aa0ab"/>
<rect x="458" y="156" width="8" height="8" rx="2" fill="#1b1d24"/>
<rect x="468" y="96" width="8" height="8" rx="2" fill="#1b1d24"/>
<rect x="468" y="106" width="8" height="8" rx="2" fill="#1b1d24"/>
<rect x="468" y="116" width="8" height="8" rx="2" fill="#1b1d24"/>
<rect x="468" y="126" width="8" height="8" rx="2" fill="#3a3f49"/>
<rect x="468" y="136" width="8" height="8" rx="2" fill="#1b1d24"/>
<rect x="468" y="146" width="8" height="8" rx="2" fill="#1b1d24"/>
<rect x="468" y="156" width="8" height="8" rx="2" fill="#1b1d24"/>
<rect x="478" y="96" width="8" height="8" rx="2" fill="#1b1d24"/>
<rect x="478" y="106" width="8" height="8" rx="2" fill="#1b1d24"/>
<rect x="478" y="116" width="8" height="8" rx="2" fill="#1b1d24"/>
<rect x="478" y="126" width="8" height="8" rx="2" fill="#1b1d24"/>
<rect x="478" y="136" width="8" height="8" rx="2" fill="#1b1d24"/>
<rect x="478" y="146" width="8" height="8" rx="2" fill="#1b1d24"/>
<rect x="478" y="156" width="8" height="8" rx="2" fill="#1b1d24"/>
<rect x="488" y="96" width="8" height="8" rx="2" fill="#1b1d24"/>
<rect x="488" y="106" width="8" height="8" rx="2" fill="#1b1d24"/>
<rect x="488" y="116" width="8" height="8" rx="2" fill="#1b1d24"/>
<rect x="488" y="126" width="8" height="8" rx="2" fill="#1b1d24"/>
<rect x="488" y="136" width="8" height="8" rx="2" fill="#1b1d24"/>
<rect x="488" y="146" width="8" height="8" rx="2" fill="#1b1d24"/>
<rect x="488" y="156" width="8" height="8" rx="2" fill="#1b1d24"/>
<rect x="498" y="96" width="8" height="8" rx="2" fill="#1b1d24"/>
<rect x="498" y="106" width="8" height="8" rx="2" fill="#1b1d24"/>
<rect x="498" y="116" width="8" height="8" rx="2" fill="#1b1d24"/>
<rect x="498" y="126" width="8" height="8" rx="2" fill="#1b1d24"/>
<rect x="498" y="136" width="8" height="8" rx="2" fill="#1b1d24"/>
<rect x="498" y="146" width="8" height="8" rx="2" fill="#1b1d24"/>
<rect x="498" y="156" width="8" height="8" rx="2" fill="#1b1d24"/>
<rect x="508" y="96" width="8" height="8" rx="2" fill="#1b1d24"/>
<rect x="508" y="106" width="8" height="8" rx="2" fill="#1b1d24"/>
<rect x="508" y="116" width="8" height="8" rx="2" fill="#3a3f49"/>
<rect x="508" y="126" width="8" height="8" rx="2" fill="#1b1d24"/>
<rect x="508" y="136" width="8" height="8" rx="2" fill="#1b1d24"/>
<rect x="508" y="146" width="8" height="8" rx="2" fill="#1b1d24"/>
<rect x="508" y="156" width="8" height="8" rx="2" fill="#1b1d24"/>
<rect x="518" y="96" width="8" height="8" rx="2" fill="#1b1d24"/>
<rect x="518" y="106" width="8" height="8" rx="2" fill="#1b1d24"/>
<rect x="518" y="116" width="8" height="8" rx="2" fill="#1b1d24"/>
<rect x="518" y="126" width="8" height="8" rx="2" fill="#1b1d24"/>
<rect x="518" y="136" width="8" height="8" rx="2" fill="#1b1d24"/>
<rect x="518" y="146" width="8" height="8" rx="2" fill="#1b1d24"/>
<rect x="518" y="156" width="8" height="8" rx="2" fill="#3a3f49"/>
<rect x="528" y="96" width="8" height="8" rx="2" fill="#f3f3f1"/>
<rect x="528" y="106" width="8" height="8" rx="2" fill="#1b1d24"/>
<rect x="528" y="116" width="8" height="8" rx="2" fill="#5c626e"/>
<rect x="528" y="126" width="8" height="8" rx="2" fill="#9aa0ab"/>
<rect x="528" y="136" width="8" height="8" rx="2" fill="#1b1d24"/>
<rect x="528" y="146" width="8" height="8" rx="2" fill="#1b1d24"/>
<rect x="528" y="156" width="8" height="8" rx="2" fill="#1b1d24"/>
<rect x="538" y="96" width="8" height="8" rx="2" fill="#1b1d24"/>
<rect x="538" y="106" width="8" height="8" rx="2" fill="#1b1d24"/>
<rect x="538" y="116" width="8" height="8" rx="2" fill="#1b1d24"/>
<rect x="538" y="126" width="8" height="8" rx="2" fill="#1b1d24"/>
<rect x="538" y="136" width="8" height="8" rx="2" fill="#1b1d24"/>
<rect x="538" y="146" width="8" height="8" rx="2" fill="#1b1d24"/>
<rect x="538" y="156" width="8" height="8" rx="2" fill="#1b1d24"/>
<rect x="548" y="96" width="8" height="8" rx="2" fill="#1b1d24"/>
<rect x="548" y="106" width="8" height="8" rx="2" fill="#1b1d24"/>
<rect x="548" y="116" width="8" height="8" rx="2" fill="#3a3f49"/>
<rect x="548" y="126" width="8" height="8" rx="2" fill="#1b1d24"/>
<rect x="548" y="136" width="8" height="8" rx="2" fill="#1b1d24"/>
<rect x="548" y="146" width="8" height="8" rx="2" fill="#1b1d24"/>
<rect x="548" y="156" width="8" height="8" rx="2" fill="#1b1d24"/>
<text x="598" y="104" font-size="34" font-weight="800" fill="#f3f3f1">210</text>
<text x="598" y="126" font-size="13" fill="#a6a7ab">коммитов всего · commits (all public repos)</text>
<text x="598" y="174" font-size="34" font-weight="800" fill="#f3f3f1">133.8k</text>
<text x="598" y="196" font-size="13" fill="#a6a7ab">строк кода · lines of code</text>
<text x="598" y="244" font-size="34" font-weight="800" fill="#f3f3f1">2</text>
<text x="598" y="266" font-size="13" fill="#a6a7ab">коммитов за 30 дней · last 30 days</text>
<text x="28" y="262" font-size="13" fill="#a6a7ab">языки · most used languages</text>
<clipPath id="lc"><rect x="28" y="274" width="824" height="14" rx="7"/></clipPath>
<g clip-path="url(#lc)">
<rect x="28.0" y="274" width="297.4" height="14" fill="#7d8088"/>
<rect x="324.8" y="274" width="256.8" height="14" fill="#3572A5"/>
<rect x="580.9" y="274" width="199.7" height="14" fill="#3178c6"/>
<rect x="780.0" y="274" width="35.7" height="14" fill="#ff5a03"/>
<rect x="815.0" y="274" width="34.4" height="14" fill="#563d7c"/>
<rect x="848.9" y="274" width="3.7" height="14" fill="#89e051"/>
</g>
<circle cx="34" cy="310" r="6" fill="#7d8088"/>
<text x="46" y="314" font-size="13" fill="#a6a7ab">MDX 36.0%</text>
<circle cx="144" cy="310" r="6" fill="#3572A5"/>
<text x="156" y="314" font-size="13" fill="#a6a7ab">Python 31.1%</text>
<circle cx="284" cy="310" r="6" fill="#3178c6"/>
<text x="296" y="314" font-size="13" fill="#a6a7ab">TypeScript 24.2%</text>
<circle cx="464" cy="310" r="6" fill="#ff5a03"/>
<text x="476" y="314" font-size="13" fill="#a6a7ab">Astro 4.3%</text>
<circle cx="584" cy="310" r="6" fill="#563d7c"/>
<text x="596" y="314" font-size="13" fill="#a6a7ab">CSS 4.1%</text>
<circle cx="684" cy="310" r="6" fill="#89e051"/>
<text x="696" y="314" font-size="13" fill="#a6a7ab">Shell 0.4%</text>
</svg>